<svg width="512" height="512" viewBox="0 0 512 512" fill="none" xmlns="http://www.w3.org/2000/svg">
<circle cx="256" cy="256" r="256" fill="#453E69"/>
<path d="M240.16 158.47H236.227C216.785 158.47 201.602 163.385 190.68 173.216C179.976 182.828 174.623 199.976 174.623 224.662C174.623 232.744 175.388 238.424 176.917 241.701C178.446 244.759 179.211 246.507 179.211 246.944C167.415 246.944 158.567 244.541 152.669 239.735C146.989 234.71 144.149 226.518 144.149 215.159C144.149 199.649 147.972 185.558 155.618 172.888C163.264 159.999 175.388 149.623 191.991 141.758C208.811 133.894 230.111 129.962 255.888 129.962C270.306 129.962 285.816 131.273 302.419 133.894C316.4 136.297 328.852 137.499 339.774 137.499C353.755 137.499 366.426 135.205 377.785 130.617C377.348 144.817 373.744 155.303 366.972 162.075C360.2 168.847 350.151 172.233 336.825 172.233C329.835 172.233 322.844 171.687 315.854 170.594C308.863 169.502 298.923 167.645 286.035 165.024L240.815 375.394H193.629L240.16 158.47Z" fill="#E8DAEF"/>
</svg>
