<svg width="192" height="192" viewBox="0 0 192 192" fill="none" xmlns="http://www.w3.org/2000/svg">
<g clip-path="url(#clip0)">
<circle cx="96" cy="96" r="96" fill="#453E69"/>
<path d="M90.0598 59.4264H88.5852C81.2944 59.4264 75.6009 61.2696 71.5049 64.956C67.4908 68.5605 65.4838 74.9912 65.4838 84.2481C65.4838 87.2792 65.7705 89.4091 66.344 90.6379C66.9174 91.7848 67.2041 92.4401 67.2041 92.604C62.7804 92.604 59.4627 91.7029 57.2508 89.9006C55.1209 88.0165 54.056 84.9445 54.056 80.6846C54.056 74.8683 55.4896 69.5845 58.3568 64.8331C61.224 59.9998 65.7705 56.1086 71.9964 53.1595C78.3043 50.2104 86.2915 48.7358 95.958 48.7358C101.365 48.7358 107.181 49.2273 113.407 50.2104C118.65 51.1115 123.319 51.5621 127.415 51.5621C132.658 51.5621 137.41 50.7019 141.669 48.9816C141.506 54.3064 140.154 58.2385 137.614 60.7781C135.075 63.3176 131.307 64.5873 126.309 64.5873C123.688 64.5873 121.067 64.3825 118.445 63.9729C115.824 63.5633 112.096 62.867 107.263 61.884L90.3056 140.773H72.6108L90.0598 59.4264Z" fill="#E8DAEF"/>
</g>
<defs>
<clipPath id="clip0">
<rect width="192" height="192" fill="white"/>
</clipPath>
</defs>
</svg>
